<svg xmlns="http://www.w3.org/2000/svg" viewBox="0 0 231.98 272.85"><defs><style>.cls-1,.cls-2{fill:#fff;}.cls-2{font-size:48px;font-family:Raleway-BoldItalic, Raleway;font-weight:700;font-style:italic;}.cls-3{letter-spacing:-0.01em;}.cls-4{letter-spacing:0em;}</style></defs><title>Asset 22</title><g id="Layer_2" data-name="Layer 2"><g id="Layer_1-2" data-name="Layer 1"><path class="cls-1" d="M195.6,104.66H36a4.84,4.84,0,0,0-4.84,4.91c1.54,84,69.92,97.35,79.33,97.17a2,2,0,0,1,1.69.93c.79,1.25,2.08,3.31,2.9,4.6a.87.87,0,0,0,1.48,0l2.9-4.6a2,2,0,0,1,1.69-.93c9.41.18,77.78-13.15,79.33-97.17A4.84,4.84,0,0,0,195.6,104.66Z"/><path class="cls-1" d="M207.33,93.83a36.88,36.88,0,0,1-.67-9.71c1.59-17.13-2.12-60.22-78.9-63.54-.68-17.27-22-22.64-21.56-19.9,0,0,5.87,11.66,2.06,19.77-80.78,2-84.55,46.41-82.92,63.76a35.23,35.23,0,0,1-.69,9.6,4.33,4.33,0,0,0,4.26,5.13H203.07A4.32,4.32,0,0,0,207.33,93.83Z"/><text class="cls-2" transform="translate(0.19 261.86)">mu<tspan class="cls-3" x="71.38" y="0">n</tspan><tspan class="cls-4" x="98.83" y="0">y-app</tspan></text></g></g></svg>