<svg xmlns="http://www.w3.org/2000/svg" viewBox="0 0 292 292"><defs><style>.cls-1{fill:#fff;}.cls-2{fill:#24422d;}</style></defs><title>muny-logo_10</title><g id="Layer_2" data-name="Layer 2"><g id="Layer_1-2" data-name="Layer 1"><path class="cls-1" d="M225.61,144.32H66a4.84,4.84,0,0,0-4.84,4.92c1.54,84,69.92,97.34,79.33,97.16a2,2,0,0,1,1.69.93c.79,1.25,2.08,3.31,2.9,4.6a.87.87,0,0,0,1.48,0l2.9-4.6a1.94,1.94,0,0,1,1.69-.93c9.41.18,77.78-13.15,79.33-97.16A4.84,4.84,0,0,0,225.61,144.32Z"/><path class="cls-1" d="M237.34,133.49a36.88,36.88,0,0,1-.67-9.71c1.59-17.13-2.12-60.22-78.9-63.54-.68-17.27-22-22.64-21.56-19.9,0,0,5.87,11.66,2.06,19.77-80.78,2-84.55,46.41-82.92,63.76a35.23,35.23,0,0,1-.69,9.6,4.33,4.33,0,0,0,4.26,5.13H233.08A4.32,4.32,0,0,0,237.34,133.49Z"/><path class="cls-2" d="M211.82,0H80.18A80.27,80.27,0,0,0,0,80.18V211.82A80.27,80.27,0,0,0,80.18,292H211.82A80.27,80.27,0,0,0,292,211.82V80.18A80.27,80.27,0,0,0,211.82,0ZM80.18,20H211.82A60.25,60.25,0,0,1,272,80.18V211.82A60.25,60.25,0,0,1,211.82,272H80.18A60.25,60.25,0,0,1,20,211.82V80.18A60.25,60.25,0,0,1,80.18,20Z"/></g></g></svg>