<svg xmlns="http://www.w3.org/2000/svg" viewBox="0 0 419.6 216.68"><defs><style>.cls-1,.cls-2{fill:#fff;}.cls-2{font-size:48px;font-family:Raleway-BoldItalic, Raleway;font-weight:700;font-style:italic;}.cls-3{letter-spacing:-0.01em;}.cls-4{letter-spacing:0em;}</style></defs><title>Asset 21</title><g id="Layer_2" data-name="Layer 2"><g id="Layer_1-2" data-name="Layer 1"><path class="cls-1" d="M171,104.66H11.37a4.85,4.85,0,0,0-4.84,4.91c1.55,84,69.93,97.35,79.33,97.17a1.94,1.94,0,0,1,1.69.93l2.9,4.6a.88.88,0,0,0,1.49,0l2.89-4.6a2,2,0,0,1,1.69-.93c9.41.18,77.79-13.15,79.33-97.17A4.84,4.84,0,0,0,171,104.66Z"/><path class="cls-1" d="M182.75,93.83a36.47,36.47,0,0,1-.68-9.71C183.67,67,180,23.9,103.17,20.58,102.49,3.31,81.2-2.06,81.62.68c0,0,5.86,11.66,2,19.77C2.9,22.42-.88,66.86.75,84.21a35.62,35.62,0,0,1-.68,9.6,4.32,4.32,0,0,0,4.26,5.13H178.48A4.33,4.33,0,0,0,182.75,93.83Z"/><text class="cls-2" transform="translate(187.81 205.69)">mu<tspan class="cls-3" x="71.38" y="0">n</tspan><tspan class="cls-4" x="98.83" y="0">y-app</tspan></text></g></g></svg>