<svg xmlns="http://www.w3.org/2000/svg" xmlns:xlink="http://www.w3.org/1999/xlink" viewBox="0 0 272 272"><defs><style>.cls-1{fill:url(#linear-gradient);}.cls-2{fill:#fdfefe;}</style><linearGradient id="linear-gradient" x1="136" y1="190.81" x2="136" y2="53.69" gradientUnits="userSpaceOnUse"><stop offset="0.46" stop-color="#58ba58"/><stop offset="0.74" stop-color="#6abe51"/><stop offset="1" stop-color="#77c14c"/></linearGradient></defs><title>muny-logo</title><g id="Layer_2" data-name="Layer 2"><g id="Layer_1-2" data-name="Layer 1"><rect class="cls-1" width="272" height="272" rx="70.18"/><path class="cls-2" d="M51.34,139.52c1.54,84,69.92,97.35,79.33,97.17a1.94,1.94,0,0,1,1.69.92c.79,1.26,2.09,3.31,2.9,4.61a.87.87,0,0,0,1.48,0l2.9-4.6a1.94,1.94,0,0,1,1.69-.92c9.41.18,77.79-13.15,79.33-97.17a4.83,4.83,0,0,0-4.84-4.91H56.18A4.83,4.83,0,0,0,51.34,139.52Z"/><path class="cls-2" d="M226.88,114.06c1.59-17.13-2.12-60.22-78.9-63.54-.68-17.26-22-22.64-21.56-19.9,0,0,5.87,11.66,2.06,19.77-80.78,2-84.55,46.41-82.92,63.77a35.23,35.23,0,0,1-.69,9.6,4.33,4.33,0,0,0,4.26,5.12H223.29a4.32,4.32,0,0,0,4.26-5.1A36.92,36.92,0,0,1,226.88,114.06Z"/></g></g></svg>